Coordinates
version=1
nRows=4
nColumns=63
inDegrees=yes

Units are S.I. units (second, meters, Newtons, ...)
If the header above contains a line with 'inDegrees', this indicates whether rotational values are in degrees (yes) or radians (no).

endheader
time	pelvis_tilt	pelvis_list	pelvis_rotation	pelvis_tx	pelvis_ty	pelvis_tz	hip_flexion_r	hip_adduction_r	hip_rotation_r	knee_angle_r	knee_angle_r_beta	ankle_angle_r	subtalar_angle_r	mtp_angle_r	hip_flexion_l	hip_adduction_l	hip_rotation_l	knee_angle_l	knee_angle_l_beta	ankle_angle_l	subtalar_angle_l	mtp_angle_l	L5_S1_Flex_Ext	L5_S1_Lat_Bending	L5_S1_axial_rotation	L4_L5_Flex_Ext	L4_L5_Lat_Bending	L4_L5_axial_rotation	L3_L4_Flex_Ext	L3_L4_Lat_Bending	L3_L4_axial_rotation	L2_L3_Flex_Ext	L2_L3_Lat_Bending	L2_L3_axial_rotation	L1_L2_Flex_Ext	L1_L2_Lat_Bending	L1_L2_axial_rotation	L1_T12_Flex_Ext	L1_T12_Lat_Bending	L1_T12_axial_rotation	Abs_r3	Abs_r2	Abs_r1	Abs_t1	Abs_t2	neck_flexion	neck_bending	neck_rotation	arm_flex_r	arm_add_r	arm_rot_r	elbow_flex_r	pro_sup_r	wrist_flex_r	wrist_dev_r	arm_flex_l	arm_add_l	arm_rot_l	elbow_flex_l	pro_sup_l	wrist_flex_l	wrist_dev_l
      3.20000000	      0.16950947	     -0.57182742	    109.60854022	      0.26391016	      0.85198421	      0.80369110	     -7.72462505	      2.83671397	     -0.60005265	      8.15882782	      0.14239841	     23.19034094	     -9.86489288	      0.00000000	     -4.10856915	     -2.94060040	      7.26433910	     10.85239625	      0.18941005	     30.42778699	     -1.25147012	      0.00000000	     -0.23615137	     -0.10537935	      2.01030507	     -0.43855671	     -0.14015454	      2.13594913	     -0.38797308	     -0.25621935	      2.13594913	     -0.26989740	     -0.25621935	      1.75901693	     -0.21929016	     -0.21488957	      1.63337287	     -0.13493689	     -0.16323261	      1.50772880	     -1.68680560	     -1.19207228	     11.18071369	      0.00000000	      0.00000000	     16.27492928	      2.40051680	    -18.97425604	     60.12029988	    -27.27526905	      8.09789383	     70.94442607	     86.16332438	    -11.97993375	     -0.15660271	     93.56749716	     16.84849813	    156.88493566	      0.14830535	      1.19870713	    -38.20567295	    -24.36061491
      3.21666667	      0.13581798	     -0.35421443	    109.75616542	      0.26379672	      0.85208501	      0.80418544	     -7.93730109	      2.89908649	     -0.75157100	      8.17014382	      0.14259591	     23.16343395	     -9.88650412	      0.00000000	     -4.26200379	     -2.99935475	      7.26306540	     10.99774796	      0.19194691	     30.25988293	     -1.43879931	      0.00000000	     -0.25300921	     -0.09452529	      2.05802122	     -0.46986341	     -0.12571863	      2.18664754	     -0.41566884	     -0.22982878	      2.18664754	     -0.28916423	     -0.22982878	      1.80076857	     -0.23494436	     -0.19275597	      1.67214224	     -0.14456946	     -0.14641967	      1.54351591	     -1.80721951	     -1.06928896	     11.44609661	      0.00000000	      0.00000000	     15.96379186	      2.30959933	    -19.10341805	     59.36468495	    -27.17467521	      6.20693115	     70.53795119	     86.05490503	    -11.30128625	     -1.08256329	     92.83684841	     16.94936775	    152.36561204	      0.14936461	      1.12385651	    -39.19708531	    -24.43983946
      3.23333333	      0.13505812	     -0.05046181	    109.76490768	      0.26366727	      0.85228916	      0.80491478	     -8.17416654	      2.98145898	     -0.83963793	      8.24248745	      0.14385854	     23.21981539	     -9.78123315	      0.00000000	     -4.48339259	     -3.09030888	      7.18451111	     11.16113397	      0.19479854	     30.19298008	     -1.62660544	      0.00000000	     -0.28102459	     -0.07915687	      2.17240497	     -0.52189076	     -0.10527864	      2.30818028	     -0.46169529	     -0.19246201	      2.30818028	     -0.32118300	     -0.19246201	      1.90085435	     -0.26095943	     -0.16141669	      1.76507904	     -0.16057745	     -0.12261399	      1.62930373	     -2.00733051	     -0.89543835	     12.08226472	      0.00000000	      0.00000000	     15.51215823	      2.24571926	    -19.66651435	     58.56133544	    -27.02467398	      3.75436056	     70.07039827	     86.15628745	    -10.48187744	     -1.47385388	     92.01971360	     17.31441807	    147.21168735	      0.15317767	      1.02036129	    -39.21508626	    -24.52386587
      3.25000000	      0.11798699	      0.19332787	    109.69656654	      0.26372788	      0.85255801	      0.80568166	     -8.36424252	      3.01436976	     -0.84842674	      8.27042029	      0.14434606	     23.22708966	     -9.61718283	      0.00000000	     -4.68109566	     -3.14096999	      7.08377075	     11.24452476	      0.19625398	     30.10074257	     -1.73110232	      0.00000000	     -0.30473085	     -0.07537486	      2.32509928	     -0.56591567	     -0.10024856	      2.47041799	     -0.50064232	     -0.18326643	      2.47041799	     -0.34827689	     -0.18326643	      2.03446187	     -0.28297307	     -0.15370441	      1.88914317	     -0.17412321	     -0.11675565	      1.74382446	     -2.17666202	     -0.85265545	     12.93150468	      0.00000000	      0.00000000	     15.09653951	      2.43631637	    -20.44295432	     57.63433481	    -26.59916859	      0.85843182	     69.70140841	     86.42163985	    -10.18774405	     -1.22820562	     91.14658469	     17.85193887	    142.12831075	      0.15838586	      0.90992781	    -37.83751025	    -24.59965609
